<?xml version="1.0" standalone="no"?>
<!DOCTYPE svg PUBLIC "-//W3C//DTD SVG 20010904//EN"
 "http://www.w3.org/TR/2001/REC-SVG-20010904/DTD/svg10.dtd">
<svg version="1.0" xmlns="http://www.w3.org/2000/svg"
 width="416.000000pt" height="600.000000pt" viewBox="0 0 416.000000 600.000000"
 preserveAspectRatio="xMidYMid meet">

<g transform="translate(0.000000,600.000000) scale(0.100000,-0.100000)"
fill="#000090" stroke="none">
<path d="M1946 5904 c42 -48 47 -61 47 -101 0 -35 -5 -50 -21 -64 -15 -12 -27
-41 -38 -91 -14 -62 -25 -83 -70 -139 -74 -91 -216 -226 -292 -278 -86 -58
-211 -116 -309 -143 l-83 -23 -1 -35 c-1 -19 -2 -42 -1 -50 1 -8 2 -32 4 -53
1 -26 12 -50 34 -76 22 -25 30 -42 24 -51 -5 -8 -4 -22 2 -34 14 -25 23 -189
13 -213 -5 -10 -9 -20 -9 -23 -1 -3 -16 -29 -35 -58 -31 -48 -32 -54 -19 -75
8 -12 14 -39 13 -60 -1 -30 5 -43 34 -72 75 -73 93 -85 132 -86 22 -1 42 -2
47 -4 39 -11 64 -30 82 -64 11 -22 28 -44 38 -49 22 -11 60 -8 75 7 17 17 52
13 71 -8 19 -21 70 -33 148 -35 40 -2 54 -8 84 -36 34 -33 35 -38 31 -90 -2
-30 -7 -66 -10 -79 -9 -33 -47 -111 -55 -111 -4 0 -20 16 -35 35 -15 19 -32
35 -37 35 -15 0 -70 -61 -64 -71 3 -5 7 -44 10 -85 4 -67 10 -87 48 -158 48
-89 54 -139 22 -175 -10 -10 -18 -25 -20 -33 -1 -7 -5 -19 -9 -25 -5 -8 -3
-13 6 -13 8 0 17 6 20 14 3 8 23 25 45 37 21 13 43 32 48 43 17 37 116 76 196
76 34 0 50 6 67 24 13 14 31 25 40 25 53 2 67 7 80 36 7 17 14 36 14 43 1 19
54 54 80 52 42 -4 46 0 49 43 2 35 7 43 26 45 19 3 22 9 22 49 0 58 26 112 63
132 16 9 42 26 57 39 19 15 41 22 69 22 49 0 50 7 15 74 -24 45 -25 53 -14 89
6 21 29 58 50 80 35 40 37 45 33 92 -6 65 16 121 54 138 16 7 53 30 83 53 30
22 71 47 90 54 19 7 49 25 65 40 44 41 68 50 127 51 65 0 185 21 215 37 12 7
31 25 42 41 16 22 33 31 77 40 92 18 131 15 149 -13 9 -13 29 -26 44 -28 28
-4 28 -3 -23 55 l-51 59 -82 -4 c-46 -3 -83 -3 -83 -1 0 17 86 165 155 269 47
70 85 134 85 141 0 8 -12 13 -33 13 -21 0 -41 8 -52 20 -9 10 -34 25 -54 31
-20 7 -51 25 -69 40 -41 36 -95 39 -129 7 -33 -31 -107 -27 -144 8 -36 35 -83
31 -165 -11 -64 -34 -71 -35 -173 -35 -107 0 -149 11 -196 50 -18 15 -20 51
-4 67 12 12 3 89 -12 98 -4 3 -20 -1 -33 -10 -33 -22 -62 -6 -71 37 -4 18 -16
54 -27 81 -19 43 -23 47 -55 47 -21 0 -47 10 -67 25 -18 14 -43 25 -54 25 -16
0 -29 14 -47 48 -57 105 -153 201 -225 223 -19 6 -44 15 -55 20 -13 6 -36 7
-62 1 -23 -5 -47 -6 -54 -1 -33 21 -27 5 17 -47z"/>
<path d="M1120 5042 c-28 -5 -39 -18 -75 -89 -21 -43 -30 -53 -51 -53 -27 0
-48 -37 -61 -103 -3 -18 -13 -38 -21 -45 -9 -7 -22 -36 -28 -65 -6 -28 -17
-73 -24 -99 -13 -43 -12 -49 5 -68 10 -11 15 -20 11 -20 -4 0 -1 -10 6 -22 7
-13 14 -54 16 -93 8 -195 8 -220 -8 -250 -20 -37 -13 -72 19 -88 13 -7 25 -20
27 -29 5 -39 89 -128 120 -128 8 0 15 -3 15 -7 1 -5 3 -19 5 -33 5 -37 12 -75
14 -77 2 -2 3 -8 4 -13 1 -14 27 -30 48 -30 16 0 17 7 7 45 -2 11 39 105 47
105 3 0 15 -6 27 -14 30 -19 72 -10 92 21 9 13 25 33 35 43 17 17 17 19 0 48
-14 23 -24 29 -42 25 -28 -5 -71 32 -103 87 -20 36 -29 108 -15 125 4 6 6 26
3 45 -2 19 -6 51 -8 70 -1 19 -4 35 -5 35 -3 0 -12 40 -12 55 0 30 9 50 32 75
13 14 20 25 16 25 -5 0 -4 6 1 13 6 6 11 50 12 95 1 46 4 89 7 96 3 7 -5 21
-16 31 -16 14 -19 26 -14 52 5 25 2 34 -10 39 -26 10 -44 65 -44 133 0 35 -2
63 -3 65 -2 1 -15 0 -29 -2z"/>
<path d="M225 4812 c-44 -38 -92 -85 -108 -105 l-27 -36 22 -15 c48 -34 134
-3 159 56 6 15 26 36 45 47 37 22 41 36 20 64 -8 10 -12 27 -9 37 9 36 -20 22
-102 -48z"/>
<path d="M226 4625 c-30 -24 -76 -25 -118 -3 -12 6 -28 4 -46 -6 -25 -13 -30
-23 -35 -67 -8 -65 14 -117 55 -133 33 -12 35 -25 8 -59 -25 -32 -25 -39 0
-55 11 -7 20 -16 20 -22 0 -5 11 -26 25 -46 18 -26 25 -50 25 -84 0 -51 -9
-64 -53 -75 -28 -7 -38 -35 -12 -35 8 0 40 -14 71 -31 30 -17 56 -30 58 -28 1
2 13 21 25 42 28 46 52 62 119 82 l52 16 0 45 c0 30 5 46 15 50 24 9 79 -29
89 -62 21 -72 23 -74 67 -74 l41 0 -7 51 c-5 34 -3 59 5 74 10 18 10 34 1 69
-9 37 -8 52 5 85 15 38 15 40 -6 61 -12 12 -29 40 -40 64 -20 48 -63 75 -134
83 -23 3 -49 12 -58 20 -14 13 -22 12 -63 -6 -49 -22 -52 -21 -57 33 -4 38
-16 41 -52 11z"/>
<path d="M814 4479 c-31 -71 -51 -89 -94 -89 -34 0 -39 -3 -53 -37 -12 -31
-12 -44 -2 -84 11 -39 11 -50 0 -59 -9 -8 -12 -42 -9 -132 3 -95 1 -127 -11
-144 -13 -21 -11 -28 25 -95 22 -39 40 -76 40 -81 0 -4 -11 -26 -25 -48 -31
-49 -34 -100 -5 -100 10 0 23 -6 27 -12 4 -7 17 -18 28 -24 11 -6 21 -23 23
-38 3 -23 6 -25 19 -15 8 7 30 12 49 11 19 -2 42 2 53 7 13 7 24 6 40 -5 11
-8 30 -13 40 -9 13 4 24 -1 35 -17 14 -19 19 -21 36 -10 11 6 30 12 42 12 15
0 36 16 57 42 l35 41 -27 46 c-49 82 -80 154 -83 190 -2 25 -10 41 -26 51 -47
31 -96 81 -102 106 -4 14 -18 29 -31 34 -14 5 -25 18 -25 28 0 10 -3 22 -7 26
-14 13 -11 39 7 75 14 27 17 50 13 96 -2 33 -5 89 -7 125 -1 36 -5 71 -10 78
-4 6 -5 12 -1 12 3 0 -1 14 -10 30 -9 17 -17 30 -19 30 -2 0 -11 -19 -22 -41z"/>
<path d="M1219 4233 c0 -4 -3 -17 -6 -28 -10 -42 -5 -87 13 -106 10 -11 19
-27 20 -36 3 -21 23 -33 55 -33 30 0 82 -50 84 -81 1 -12 -8 -27 -23 -37 -14
-9 -31 -31 -39 -50 -13 -32 -17 -34 -51 -29 -20 3 -45 8 -54 12 -12 5 -20 -1
-30 -22 -20 -39 -15 -67 17 -108 15 -21 29 -55 32 -78 3 -23 14 -54 24 -69 11
-15 22 -53 26 -89 7 -73 27 -99 76 -99 39 0 94 -32 107 -62 5 -13 11 -39 15
-59 5 -34 8 -36 37 -33 17 2 43 -2 58 -10 35 -17 59 -5 53 27 -3 13 2 29 10
36 13 10 19 7 38 -18 13 -17 24 -38 25 -47 5 -34 22 -37 48 -9 14 15 26 34 26
41 0 22 2 27 24 64 26 42 26 45 0 100 -55 114 -69 147 -70 170 -1 14 -5 55 -8
91 l-6 66 41 36 c22 20 44 37 47 37 4 0 20 -16 35 -35 16 -20 32 -33 37 -30
14 9 31 73 37 138 8 96 -19 117 -160 121 -39 2 -53 7 -67 26 -20 26 -52 31
-87 12 -38 -21 -55 -13 -114 50 -56 60 -57 61 -107 59 -45 -1 -55 2 -89 34
-43 40 -73 60 -74 48z"/>
<path d="M450 4145 c0 -40 -17 -54 -97 -79 -51 -17 -73 -38 -88 -85 -6 -19 -1
-28 21 -47 16 -13 34 -23 40 -24 6 0 45 -22 86 -50 63 -41 95 -72 145 -139 2
-3 16 8 33 24 l29 28 13 -33 14 -33 18 28 c15 22 16 32 7 44 -6 9 -22 37 -35
63 -12 26 -29 55 -37 64 -11 14 -11 18 2 28 22 16 30 44 23 82 -6 31 -9 34
-43 34 -44 0 -81 33 -81 72 0 22 -26 58 -43 58 -4 0 -7 -16 -7 -35z"/>
<path d="M592 3707 c-11 -13 -9 -28 13 -89 34 -95 54 -126 143 -227 53 -60 86
-109 113 -168 l38 -84 40 26 c23 14 47 25 56 25 9 0 15 9 15 24 0 13 7 29 15
36 8 7 15 21 15 30 0 10 15 28 33 39 19 11 39 32 45 46 10 21 18 25 56 25 40
0 48 -4 86 -47 23 -26 48 -59 57 -73 12 -21 23 -26 51 -25 21 0 49 -3 64 -7
28 -8 27 -11 13 55 -6 31 -53 57 -102 57 -31 0 -71 36 -80 72 -3 13 -8 43 -10
68 -3 25 -13 56 -23 70 -9 14 -20 45 -24 70 -8 51 -21 70 -47 70 -24 0 -24 -2
6 -46 30 -44 32 -78 6 -96 -10 -7 -26 -28 -35 -45 -14 -28 -22 -33 -51 -33
-20 0 -44 -5 -55 -12 -15 -10 -22 -9 -37 4 -10 8 -31 19 -48 23 -42 10 -157 5
-172 -7 -18 -14 -43 8 -43 37 0 13 -8 26 -17 29 -61 22 -95 55 -89 85 3 14 0
39 -7 55 -11 25 -14 27 -25 13z"/>
<path d="M2348 3523 c-7 -9 -13 -21 -13 -27 -3 -47 -35 -75 -92 -82 -11 -1
-35 -13 -53 -25 -27 -21 -114 -42 -207 -51 -7 -1 -21 -10 -30 -20 -14 -16 -15
-22 -4 -40 16 -26 9 -32 -40 -30 -33 2 -46 -4 -75 -32 -38 -37 -42 -60 -17
-96 10 -14 17 -26 15 -27 -1 -2 -2 -4 -1 -5 0 -2 2 -11 5 -20 13 -55 30 -94
44 -103 6 -4 20 1 31 11 10 9 19 14 19 10 0 -19 59 37 111 105 47 62 70 83
113 103 30 14 59 26 64 26 5 0 19 -11 32 -25 24 -25 24 -26 6 -59 -10 -19 -19
-49 -21 -67 -3 -32 -11 -71 -15 -76 -2 -2 -3 -7 -4 -12 0 -5 -4 -12 -8 -16 -3
-4 13 -36 35 -72 23 -36 42 -68 42 -72 0 -3 4 -12 8 -18 5 -7 5 -18 2 -23 -4
-6 3 -26 15 -45 14 -23 19 -40 13 -48 -17 -22 5 -80 37 -97 32 -17 24 -45 -26
-85 -32 -27 -44 -43 -42 -59 3 -21 43 -32 54 -15 3 5 29 9 59 9 50 0 55 2 75
35 l21 35 40 -21 c48 -24 74 -75 65 -125 -6 -32 6 -54 19 -34 3 5 15 10 26 10
11 0 31 8 46 17 25 16 26 16 47 -8 12 -14 37 -29 56 -32 19 -4 42 -15 52 -24
17 -15 20 -15 46 10 16 15 35 27 43 27 21 0 43 40 30 53 -18 18 -13 35 14 53
20 13 28 14 40 4 27 -23 146 6 172 41 10 14 41 28 73 33 24 4 121 70 136 93
20 31 21 32 23 67 0 15 26 53 60 93 44 50 57 71 49 80 -6 7 -7 24 -4 39 4 14
3 24 -1 22 -4 -1 -63 -40 -130 -86 l-123 -82 -137 -3 -138 -2 -6 53 c-4 29
-14 64 -24 78 -26 40 -98 67 -190 71 -107 6 -113 8 -88 36 27 28 63 89 63 104
0 6 -24 40 -53 75 -30 35 -63 83 -74 108 -11 25 -34 58 -51 74 -20 18 -37 50
-47 83 -9 29 -29 68 -45 87 -27 30 -36 34 -79 34 -33 1 -54 -4 -63 -15z"/>
<path d="M1116 3317 c-47 -50 -65 -80 -75 -127 -6 -28 -12 -35 -32 -35 -26 0
-69 -21 -81 -39 -17 -26 -8 -85 17 -110 14 -14 25 -34 25 -44 0 -11 14 -44 30
-75 17 -31 48 -102 70 -157 22 -56 48 -112 56 -126 23 -34 42 -31 40 8 -1 24
4 33 17 36 24 5 67 -35 60 -55 -4 -9 1 -20 10 -25 10 -5 17 -18 17 -28 0 -11
3 -20 6 -20 15 0 84 67 84 83 0 10 19 29 45 45 47 29 54 42 30 62 -8 7 -15 23
-15 37 0 13 -5 34 -11 45 -8 15 -7 28 5 52 8 17 27 58 43 91 15 33 29 63 31
66 1 4 -22 21 -53 39 -35 20 -60 43 -67 59 -25 65 -77 157 -116 207 -54 69
-80 71 -136 11z"/>
<path d="M1660 3245 c0 -49 -54 -77 -92 -49 -14 11 -19 11 -64 0 -21 -5 -49
-1 -84 10 -29 10 -55 13 -60 8 -4 -5 3 -34 17 -65 21 -49 32 -60 89 -93 36
-21 64 -42 62 -45 -4 -9 -66 -135 -86 -174 -10 -21 -11 -32 -3 -40 6 -6 11
-23 11 -38 0 -15 7 -32 15 -39 8 -7 15 -25 15 -40 0 -17 8 -33 22 -42 20 -13
25 -12 60 11 50 33 66 34 106 9 19 -12 48 -21 65 -20 17 0 36 -3 42 -7 5 -4
19 -7 30 -7 18 1 20 7 17 61 -3 50 1 66 18 88 20 26 58 36 74 20 4 -5 12 -9
17 -9 5 -1 11 -3 14 -4 17 -8 34 -3 65 20 19 14 48 32 63 40 31 16 104 101
118 139 10 26 22 95 21 125 -1 10 5 28 13 40 19 29 6 47 -33 42 -45 -5 -76
-29 -130 -98 -70 -92 -103 -128 -111 -123 -4 2 -22 -5 -39 -16 -18 -10 -34
-19 -36 -19 -5 0 -49 72 -53 88 -2 6 -5 20 -7 30 -3 9 -5 17 -6 17 -1 0 -3 9
-5 20 -5 27 -39 95 -47 95 -4 0 -12 -10 -19 -21 -11 -21 -11 -21 -30 -2 -11
10 -22 32 -25 48 -3 16 -9 36 -14 44 -8 14 -9 13 -10 -4z"/>
<path d="M2127 2861 c-35 -33 -67 -61 -71 -61 -5 0 -25 -13 -46 -30 -36 -28
-39 -29 -66 -15 -33 17 -62 19 -83 6 -15 -10 -18 -67 -6 -106 4 -14 -2 -28
-19 -44 -22 -21 -29 -23 -48 -13 -13 6 -36 13 -53 14 -16 2 -46 13 -66 26 -43
26 -74 20 -108 -24 -26 -33 -26 -45 -1 -94 11 -22 20 -50 20 -64 0 -46 67 -63
93 -23 8 13 33 31 55 41 l41 19 47 -28 c45 -27 48 -27 61 -9 7 10 19 19 26 20
8 1 33 14 57 29 33 21 48 25 64 18 14 -6 29 -5 45 3 21 11 30 9 69 -12 25 -14
64 -27 86 -30 36 -4 46 0 86 35 l45 39 -28 22 c-16 13 -27 31 -27 45 0 13 -5
27 -10 30 -6 3 -7 17 -4 30 3 13 2 30 -2 37 -5 7 -10 22 -11 33 -1 20 -10 60
-13 60 -1 0 -3 8 -5 19 -2 10 -14 30 -27 45 -12 14 -26 30 -30 35 -4 5 -36
-19 -71 -53z"/>
<path d="M3482 2717 c-12 -13 -22 -33 -22 -45 0 -12 -11 -40 -25 -61 -25 -40
-108 -111 -130 -111 -16 0 -93 -38 -100 -50 -15 -24 -83 -45 -147 -45 -60 0
-65 -1 -52 -16 13 -14 13 -18 0 -28 -8 -6 -16 -26 -19 -44 -9 -57 -17 -82 -27
-85 -5 -2 -10 -12 -10 -22 0 -10 -4 -22 -10 -25 -23 -14 -9 -58 30 -97 22 -22
40 -47 40 -55 0 -8 18 -35 39 -59 22 -25 43 -61 48 -82 5 -20 13 -37 18 -37
14 0 105 -34 135 -50 21 -11 52 -21 125 -41 75 -21 115 -21 127 -1 13 24 44
21 108 -9 30 -14 73 -34 95 -44 22 -9 56 -25 76 -34 l36 -18 122 61 c102 52
121 65 121 84 0 13 11 34 25 47 43 40 35 70 -87 314 -83 167 -119 228 -139
240 -35 20 -112 21 -172 0 -43 -14 -50 -14 -71 -1 -13 9 -38 17 -57 19 l-34 3
-7 154 c-4 84 -9 155 -11 157 -2 2 -13 -6 -25 -19z"/>
<path d="M1412 2618 c-7 -7 -12 -17 -12 -24 0 -6 -25 -33 -55 -58 -60 -52 -97
-59 -103 -18 -2 13 -10 22 -21 22 -9 0 -22 5 -29 12 -9 9 -13 8 -17 -5 -4 -9
10 -44 34 -84 23 -38 41 -80 41 -93 0 -25 28 -65 102 -148 33 -36 48 -61 48
-80 0 -19 12 -40 40 -67 22 -21 45 -55 51 -74 18 -57 109 -209 155 -260 l42
-46 45 49 c34 36 50 47 64 42 58 -23 69 -20 85 26 17 49 16 143 -4 200 -10 31
-38 56 -68 63 -57 12 -110 62 -123 116 -4 15 -16 29 -26 32 -11 3 -26 21 -34
40 -8 19 -20 38 -26 41 -6 4 -11 22 -11 41 0 23 -8 42 -24 57 -15 14 -26 38
-29 63 -14 117 -80 198 -125 153z"/>
<path d="M1201 2594 c0 -11 3 -14 6 -6 3 7 2 16 -1 19 -3 4 -6 -2 -5 -13z"/>
<path d="M2065 2493 l-18 -27 -18 23 c-23 28 -27 27 -66 -11 -18 -18 -36 -29
-39 -25 -4 3 -15 -4 -25 -16 -10 -12 -18 -18 -19 -13 0 5 -7 3 -16 -5 -13 -10
-19 -8 -39 13 -19 21 -32 26 -64 24 -45 -3 -81 -29 -81 -58 0 -12 -6 -19 -17
-17 -10 1 -24 1 -30 0 -20 -2 -15 -50 7 -78 11 -14 20 -31 20 -37 0 -6 10 -16
23 -21 13 -6 27 -26 35 -50 17 -53 36 -71 91 -90 59 -19 91 -41 91 -63 0 -9 7
-30 15 -46 10 -19 13 -41 8 -70 -5 -34 -4 -39 8 -30 8 6 36 28 62 48 27 20 45
36 41 36 -5 0 -3 5 4 12 7 7 12 31 12 55 0 36 4 45 23 52 13 5 27 5 34 -1 13
-11 92 -8 99 4 14 22 57 5 100 -39 43 -44 48 -47 105 -48 38 -1 59 2 59 10 0
13 29 71 52 104 17 24 17 25 -12 43 -33 20 -38 39 -15 58 8 7 15 9 15 5 0 -5
9 0 20 10 11 10 20 23 20 30 0 6 5 16 11 22 28 28 13 141 -23 170 -12 11 -21
7 -49 -21 -29 -30 -42 -35 -89 -37 -30 -1 -63 -7 -72 -13 -23 -14 -68 8 -68
33 0 13 -10 21 -32 26 -37 9 -47 12 -50 15 -2 1 -11 3 -20 5 -10 2 -30 13 -47
24 l-29 21 -17 -27z"/>
<path d="M2695 2325 c-11 -8 -32 -15 -46 -17 -36 -5 -75 -33 -91 -65 -7 -16
-19 -29 -26 -29 -26 -3 -26 -5 1 -20 33 -18 34 -27 1 -84 -14 -25 -28 -56 -31
-70 -6 -34 -34 -62 -56 -56 -24 6 -15 -23 25 -78 32 -44 72 -126 69 -140 -1
-4 33 -42 75 -83 75 -73 78 -74 123 -72 26 1 52 -1 59 -5 7 -4 20 -9 29 -11
36 -7 47 -10 87 -31 44 -22 102 -90 112 -131 9 -36 -15 -73 -64 -96 -28 -14
-51 -36 -67 -63 -29 -50 -30 -54 -10 -54 9 0 29 -10 45 -21 18 -14 37 -20 51
-16 12 3 31 2 41 -4 15 -8 18 -6 18 15 0 14 5 28 11 32 17 10 78 -66 79 -98 0
-23 5 -28 35 -34 23 -4 41 -2 50 6 29 24 135 -21 135 -56 0 -7 9 -18 20 -24
18 -9 18 -8 9 20 -8 21 -8 39 0 61 15 45 15 47 -21 81 l-33 31 23 15 c12 8 22
20 22 27 0 8 12 22 26 32 14 10 26 25 27 33 2 8 5 20 9 25 8 15 3 54 -10 67
-8 8 -7 17 5 34 8 13 12 24 9 24 -4 0 1 11 10 25 9 14 24 25 34 25 16 0 29 16
26 31 0 3 18 28 42 56 46 56 49 65 27 83 -8 7 -15 23 -15 36 0 29 -25 32 -40
4 -6 -10 -16 -17 -23 -14 -7 2 -31 7 -52 9 -47 6 -80 12 -80 14 0 2 -8 4 -18
6 -10 2 -26 7 -35 11 -9 4 -19 8 -22 8 -3 1 -15 7 -27 14 -13 7 -23 10 -23 7
0 -4 -15 2 -32 13 -18 12 -36 21 -40 21 -5 1 -9 1 -10 2 -6 1 -39 9 -53 12
-21 4 -22 7 -29 51 -7 41 -13 52 -57 101 -15 17 -30 40 -33 52 -4 11 -21 32
-39 46 -32 24 -33 27 -30 88 2 43 8 68 18 75 18 13 29 54 14 54 -5 0 -27 -11
-50 -25 l-40 -26 -26 21 c-14 11 -39 20 -55 20 -21 0 -31 7 -40 25 -13 29 -16
29 -43 10z"/>
<path d="M2087 2073 c-4 -3 -7 -16 -7 -28 0 -38 -28 -80 -74 -114 -53 -37
-115 -151 -123 -225 -4 -30 -11 -46 -22 -49 -9 -3 -5 -5 9 -6 14 0 36 -8 49
-17 21 -15 23 -22 18 -74 -3 -32 -2 -61 2 -67 3 -5 28 -22 54 -37 39 -22 57
-27 85 -22 21 3 46 8 57 9 17 3 20 12 20 66 0 47 -4 66 -17 78 -10 9 -18 26
-18 38 0 29 33 58 58 51 13 -5 22 1 32 19 8 14 27 29 44 33 17 5 32 14 32 20
1 7 3 13 4 15 1 1 4 32 6 70 2 63 0 69 -27 96 -33 34 -37 66 -10 80 24 13 33
47 15 62 -8 7 -28 9 -49 5 -19 -3 -51 -9 -70 -12 -20 -4 -41 -2 -49 5 -7 6
-16 8 -19 4z"/>
<path d="M2282 2008 c-19 -19 -14 -48 10 -67 25 -21 31 -39 31 -101 1 -82 -23
-143 -56 -139 -28 4 -48 -8 -41 -25 7 -19 -23 -41 -39 -28 -16 14 -32 3 -39
-26 -4 -14 -1 -25 9 -31 9 -4 17 -28 20 -57 3 -27 10 -55 16 -61 13 -17 -6
-39 -41 -48 -71 -17 -83 -43 -61 -131 8 -32 15 -42 22 -35 12 12 57 -23 57
-43 0 -6 12 -29 26 -50 16 -23 24 -47 22 -61 -4 -17 2 -27 24 -39 15 -10 33
-27 39 -39 20 -37 52 -58 83 -54 21 3 30 -1 34 -15 6 -23 7 -23 45 6 24 17 51
25 104 30 120 10 189 58 177 123 -7 37 8 63 37 63 11 0 19 5 19 11 0 5 -4 8
-9 4 -5 -3 -12 -1 -15 3 -8 13 -59 1 -72 -17 -9 -12 -15 -13 -26 -3 -11 9 -19
8 -35 -3 -18 -13 -23 -11 -51 19 -23 24 -28 36 -20 44 8 8 8 18 1 34 -6 15 -6
31 0 49 8 21 6 34 -10 62 -12 19 -21 52 -21 72 0 21 -8 49 -19 64 -18 23 -31
79 -36 151 -3 32 27 39 56 12 25 -22 80 -52 97 -52 7 0 -9 24 -35 53 -26 28
-56 72 -67 96 -10 24 -38 72 -62 107 -24 34 -47 72 -51 83 -5 17 -10 19 -25
11 -15 -8 -21 -6 -30 10 -6 11 -15 18 -20 15 -5 -3 -11 -1 -15 5 -8 13 -18 13
-33 -2z"/>
<path d="M1762 1728 c-9 -11 -25 -30 -36 -41 -13 -14 -16 -24 -9 -40 12 -27
-3 -126 -24 -149 -19 -21 -10 -103 12 -112 8 -3 20 -19 27 -35 14 -32 123
-151 139 -151 17 0 154 -132 166 -160 17 -40 37 -43 62 -10 11 16 34 37 50 46
42 25 45 41 17 83 -13 20 -26 43 -28 51 -3 9 -17 15 -33 15 -26 0 -30 5 -42
50 -7 28 -13 66 -13 85 0 33 -4 37 -61 65 -80 39 -93 59 -85 129 8 61 0 72
-50 67 -41 -3 -50 13 -28 47 40 60 -19 116 -64 60z"/>
<path d="M3985 1720 c-27 -16 -77 -43 -109 -60 l-60 -32 -45 23 c-25 12 -52
24 -59 25 -7 1 -29 12 -50 24 -39 23 -72 33 -72 22 0 -4 7 -16 15 -26 22 -29
18 -55 -9 -67 -22 -10 -67 -75 -63 -91 3 -12 -32 -48 -47 -48 -12 0 -25 -17
-31 -45 -2 -5 -4 -14 -6 -20 -1 -5 3 -22 11 -37 12 -25 10 -32 -30 -93 -23
-36 -46 -65 -51 -65 -13 0 -11 -28 3 -32 17 -6 21 -32 20 -162 0 -74 4 -128
11 -140 6 -12 12 -36 13 -55 1 -38 24 -61 60 -61 29 0 84 -69 84 -104 0 -18
13 -39 40 -65 45 -43 49 -65 19 -97 -33 -35 -19 -68 44 -104 28 -16 64 -30 79
-30 35 0 68 -42 68 -86 0 -34 14 -54 23 -31 2 6 1 21 -3 32 -16 41 27 135 61
135 10 0 19 6 19 14 0 7 7 20 16 27 34 28 74 130 74 188 0 31 -4 52 -8 46 -19
-27 -44 -7 -83 65 -23 41 -61 112 -86 158 -40 74 -43 82 -25 82 11 0 41 -16
67 -35 25 -20 50 -33 54 -31 21 13 20 69 -1 117 -28 66 -20 90 71 211 l71 96
-16 38 c-13 31 -15 68 -13 191 2 84 2 153 -1 153 -3 0 -27 -14 -55 -30z"/>
<path d="M2495 1669 c-6 -17 -2 -46 8 -55 4 -4 7 -22 7 -40 0 -20 6 -34 16
-38 10 -4 13 -13 9 -25 -3 -11 -2 -22 2 -24 5 -3 10 -20 11 -37 1 -17 10 -42
18 -56 9 -13 13 -24 9 -24 -4 0 -2 -7 5 -15 9 -11 8 -19 -4 -37 -14 -20 -14
-23 1 -40 12 -13 13 -21 4 -31 -9 -11 -8 -17 4 -27 8 -7 12 -16 9 -21 -8 -14
9 -10 30 6 13 10 23 12 32 5 8 -8 13 -6 18 5 4 12 18 15 51 14 26 -2 48 -6 51
-10 2 -4 16 -6 30 -4 26 2 44 19 44 41 0 6 10 19 23 30 12 11 29 30 37 42 8
13 22 24 30 25 8 1 26 10 39 19 20 14 22 22 18 59 -5 43 -27 70 -92 114 -21
14 -67 27 -97 27 -9 -1 -22 6 -29 14 -8 10 -33 14 -85 14 -75 0 -118 16 -171
63 -18 16 -24 17 -28 6z"/>
<path d="M2810 1175 c-14 -8 -33 -18 -42 -21 -20 -7 -22 -21 -9 -43 6 -9 6
-23 -1 -35 -37 -73 -130 -116 -257 -120 -35 -1 -45 -5 -52 -22 -12 -33 -39
-38 -66 -12 -14 13 -28 22 -31 22 -23 -5 -102 53 -102 74 0 5 -15 17 -33 27
-32 17 -35 17 -60 1 -14 -10 -33 -28 -41 -41 -15 -23 -15 -24 62 -71 146 -89
227 -134 272 -151 25 -9 54 -24 65 -34 11 -10 37 -25 58 -34 21 -9 57 -29 79
-45 23 -17 45 -30 50 -30 4 0 25 -11 46 -23 20 -13 62 -32 92 -42 41 -14 72
-34 121 -82 36 -34 71 -63 78 -63 7 0 35 -12 61 -27 l48 -27 21 24 c26 31 26
46 1 77 -11 14 -20 32 -20 39 0 23 114 134 138 134 13 0 22 6 22 15 0 9 9 29
21 44 12 16 24 44 28 62 5 22 13 34 23 33 18 -1 18 49 -1 83 -6 12 -11 40 -11
62 0 26 -5 43 -16 49 -8 5 -21 19 -27 32 -16 30 -84 55 -105 38 -15 -13 -60
-12 -99 3 -19 7 -23 16 -23 48 0 44 -24 75 -33 41 -5 -20 -36 -27 -51 -13 -4
4 -22 6 -39 5 -21 -2 -42 4 -59 17 -31 25 -73 27 -108 6z"/>
<path d="M3385 736 c-4 -19 -13 -40 -21 -47 -8 -6 -14 -18 -14 -25 0 -23 -38
-54 -65 -54 -18 0 -32 -11 -50 -40 -14 -22 -30 -40 -35 -40 -17 0 -11 -29 12
-60 l21 -29 -29 -42 c-19 -28 -25 -44 -17 -46 27 -9 64 -47 78 -79 15 -37 26
-42 44 -21 6 8 28 22 48 31 30 13 47 33 78 88 24 43 39 80 37 95 -2 14 4 33
14 44 18 20 68 26 78 10 8 -13 56 11 56 28 0 7 -18 30 -40 50 -29 27 -40 44
-40 66 -1 45 -32 76 -82 82 -24 3 -48 10 -55 15 -8 7 -14 0 -18 -26z"/>
<path d="M3510 468 c-1 -21 -18 -63 -48 -113 -40 -67 -55 -84 -93 -101 -77
-37 -77 -44 -6 -103 34 -29 93 -70 130 -92 l69 -41 39 16 c22 9 48 16 59 16
28 0 70 21 70 35 0 7 7 18 15 25 10 8 15 30 15 61 0 37 4 51 19 58 18 10 19
21 5 88 -3 15 -14 24 -36 28 -58 12 -129 58 -159 101 -43 63 -79 72 -79 22z"/>
</g>
</svg>
